<?xml version="1.0" standalone="no"?>
<!DOCTYPE svg PUBLIC "-//W3C//DTD SVG 20010904//EN"
 "http://www.w3.org/TR/2001/REC-SVG-20010904/DTD/svg10.dtd">
<svg version="1.0" xmlns="http://www.w3.org/2000/svg"
 width="198.000000pt" height="64.000000pt" viewBox="0 0 1280.000000 800.000000"
 preserveAspectRatio="xMidYMid meet">

<g transform="translate(0.000000,800.000000) scale(0.100000,-0.100000)"
fill="#FF0" stroke="none">
<path d="M1 6803 c0 -659 3 -1193 5 -1188 59 133 109 261 102 263 -13 6 -38
59 -38 82 0 51 49 100 100 100 51 0 100 -49 100 -100 0 -57 -60 -108 -115 -98
-13 3 -23 2 -21 -1 7 -11 -112 -266 -123 -263 -8 1 -11 -298 -11 -1049 0 -615
4 -1048 9 -1045 5 3 11 0 14 -7 3 -6 30 -67 60 -134 34 -76 51 -123 44 -126
-7 -2 -35 51 -64 122 -30 68 -56 127 -58 130 -3 2 -5 -782 -5 -1742 l0 -1747
6400 0 6400 0 0 4000 0 4000 -6400 0 -6400 0 1 -1197z m1822 640 l67 -158 0
-317 0 -317 28 -15 c67 -35 67 -137 1 -172 -52 -27 -115 -8 -137 41 -25 54 -3
114 48 135 l30 12 0 313 0 313 -64 153 c-59 141 -67 169 -48 169 4 0 38 -71
75 -157z m-1463 -171 l0 -318 -66 -153 -66 -154 21 -37 c26 -47 26 -76 1 -117
-35 -58 -134 -54 -165 8 -38 72 4 140 93 151 20 3 34 26 87 148 l64 145 1 323
c0 279 2 322 15 322 13 0 15 -42 15 -318z m110 -2037 c0 -1949 2 -2355 13
-2355 28 0 62 -50 62 -90 0 -98 -123 -132 -175 -48 -33 52 -10 117 48 139 l22
9 0 546 0 547 -22 -19 c-13 -10 -40 -34 -61 -53 l-37 -35 0 -174 c0 -173 0
-175 25 -198 30 -28 32 -47 5 -74 -25 -25 -55 -25 -80 0 -27 27 -25 46 5 74
25 23 25 25 25 197 l0 175 70 69 70 69 0 1788 c0 1583 2 1788 15 1788 13 0 15
-268 15 -2355z m90 758 l-1 -1598 66 -430 c36 -236 83 -546 105 -688 38 -246
40 -269 40 -495 0 -329 10 -552 25 -552 6 0 22 -11 34 -24 56 -60 -2 -168 -80
-149 -34 8 -50 23 -66 61 -12 28 -11 36 3 63 9 18 29 36 46 43 l30 11 -7 390
-7 390 -109 704 -109 705 0 1583 c0 1423 2 1583 16 1583 13 0 15 -161 14
-1597z m97 4 l-6 -1593 324 -324 325 -325 0 -192 c0 -154 3 -193 13 -193 8 0
24 -12 38 -26 56 -60 12 -159 -71 -159 -90 0 -129 106 -62 166 18 16 39 29 47
29 13 0 15 28 15 181 l0 181 -325 320 -325 321 0 1603 c0 1489 1 1604 17 1604
15 0 16 -111 10 -1593z m103 1077 l0 -517 150 -144 150 -145 0 -149 0 -148 28
-15 c67 -35 67 -137 1 -172 -52 -27 -115 -8 -137 41 -25 54 -3 114 48 135 l30
12 0 142 0 142 -150 143 -150 143 0 524 c0 459 2 524 15 524 13 0 15 -64 15
-516z m394 508 c2 -4 -24 -73 -59 -152 l-64 -145 -1 -317 0 -317 28 -15 c67
-35 67 -137 1 -172 -52 -27 -115 -8 -137 41 -25 54 -3 114 48 135 l30 12 0
312 0 311 67 158 c63 147 75 168 87 149z m146 -710 l0 -718 70 -69 70 -69 0
-174 c0 -159 2 -176 20 -199 24 -31 26 -60 3 -85 -20 -22 -51 -23 -75 -1 -25
23 -22 59 7 89 25 25 25 27 25 192 l0 168 -60 59 -60 59 0 -406 0 -406 30 -12
c33 -14 60 -55 60 -90 0 -51 -49 -100 -100 -100 -51 0 -100 49 -100 100 0 33
26 75 54 88 l26 12 0 182 0 183 -90 -91 -90 -91 0 -287 c0 -157 4 -286 9 -286
4 0 20 -11 35 -25 65 -61 -8 -160 -93 -125 -16 6 -35 25 -41 41 -18 42 -5 77
35 96 l35 17 0 284 0 284 100 108 100 108 0 941 c0 830 2 941 15 941 13 0 15
-86 15 -718z m180 396 l0 -322 178 -418 c173 -408 178 -418 205 -418 106 0
147 -138 56 -186 -70 -36 -149 11 -149 89 0 12 9 37 20 54 l20 33 -180 425
-180 425 0 320 c0 278 2 320 15 320 13 0 15 -42 15 -322z m415 226 l39 -96
164 -157 c161 -154 164 -156 204 -153 31 3 45 -1 64 -19 50 -47 17 -139 -50
-139 -45 0 -76 35 -76 84 0 39 -6 47 -169 211 -169 170 -169 170 -204 260 -33
85 -37 105 -18 105 4 0 25 -43 46 -96z m-505 -426 l0 -513 177 -422 c172 -408
179 -423 205 -423 83 0 131 -77 94 -149 -35 -66 -137 -66 -172 0 -19 38 -18
68 6 107 l20 33 -180 422 -180 423 0 517 c0 453 2 517 15 517 13 0 15 -64 15
-512z m-1236 -1660 c21 -30 20 -50 -4 -81 -18 -23 -20 -40 -20 -200 l0 -174
-50 -47 c-68 -64 -86 -58 -22 7 l52 53 0 166 c0 165 0 167 -25 192 -14 14 -25
33 -25 43 0 30 29 63 55 63 13 0 31 -10 39 -22z m2461 -514 l55 -18 0 -54 c0
-39 -3 -52 -12 -48 -7 2 -44 15 -82 27 -196 62 -375 -50 -376 -236 0 -112 62
-198 172 -240 64 -24 185 -17 245 13 23 12 45 22 48 22 3 0 5 -24 5 -54 l0
-54 -47 -19 c-36 -13 -75 -18 -153 -18 -92 0 -112 3 -160 26 -67 31 -142 104
-177 173 -38 74 -43 189 -12 271 26 69 102 156 164 188 95 49 216 56 330 21z
m600 11 c69 -18 153 -71 195 -126 54 -67 74 -125 73 -214 0 -107 -33 -183
-109 -255 -82 -78 -128 -95 -254 -95 -94 0 -111 3 -160 27 -63 31 -129 92
-164 152 -113 195 -1 449 224 510 72 19 123 19 195 1z m2094 -5 c75 -38 106
-133 68 -207 -10 -18 -33 -47 -52 -66 -19 -19 -35 -38 -35 -43 0 -5 28 -38 63
-72 l63 -62 34 35 c19 19 38 35 44 35 5 0 23 -12 38 -27 l28 -27 -42 -43 -42
-43 67 -68 c37 -37 67 -71 67 -75 0 -4 -26 -7 -58 -7 -54 0 -60 2 -97 40 l-38
39 -38 -30 c-59 -47 -127 -72 -190 -72 -65 1 -108 20 -161 71 -47 44 -62 89
-53 150 6 38 16 56 53 92 26 26 60 56 77 67 l30 21 -21 29 c-71 96 -72 175 -2
240 49 46 133 56 197 23z m1990 -327 c83 -183 151 -335 151 -338 0 -3 -22 -5
-48 -5 l-49 0 -38 85 -38 86 -140 -3 -141 -3 -35 -82 -36 -83 -48 0 c-44 0
-48 2 -42 20 20 63 300 669 306 663 4 -5 75 -157 158 -340z m1253 87 l3 235
48 3 47 3 -1 -353 0 -353 -244 250 -245 250 0 -232 0 -233 -50 0 -50 0 1 348
0 347 244 -250 245 -249 2 234z m940 0 l3 235 48 3 47 3 0 -353 -1 -353 -244
250 -244 250 -1 -232 0 -233 -50 0 -50 0 1 348 0 347 244 -250 245 -250 2 235z
m662 245 c68 -14 124 -42 181 -89 l30 -24 -33 -35 -34 -35 -54 38 c-121 85
-283 78 -378 -16 -43 -43 -76 -120 -75 -179 0 -133 88 -232 224 -253 135 -22
237 23 289 126 l17 32 -91 0 -90 0 0 50 0 50 146 0 145 0 -6 -57 c-14 -119
-83 -221 -183 -270 -52 -26 -66 -28 -172 -28 -103 0 -121 3 -170 26 -70 33
-146 109 -179 179 -22 46 -26 69 -26 145 0 78 4 98 27 145 61 124 188 206 323
209 22 0 71 -6 109 -14z m-6310 -15 c91 -14 146 -39 198 -93 62 -63 90 -126
96 -213 6 -89 -15 -155 -69 -224 -75 -95 -169 -130 -351 -130 l-118 0 0 335 0
335 88 0 c48 0 118 -5 156 -10z m756 -40 l0 -50 -140 0 -140 0 0 -80 0 -80
140 0 140 0 0 -45 0 -44 -137 -3 -138 -3 -3 -112 -3 -113 141 0 140 0 0 -45 0
-45 -185 0 -185 0 0 335 0 335 185 0 185 0 0 -50z m1518 -242 l2 -288 105 0
105 0 0 -45 0 -45 -155 0 -155 0 0 336 0 335 48 -3 47 -3 3 -287z m662 242 l0
-50 -135 0 c-122 0 -135 -2 -136 -17 -1 -10 -2 -45 -2 -78 l-2 -60 138 -3 137
-3 0 -44 0 -44 -137 -3 -138 -3 -3 -112 -3 -113 140 0 141 0 0 -45 0 -45 -185
0 -185 0 0 335 0 335 185 0 185 0 0 -50z m998 35 c57 -17 115 -62 138 -106 20
-40 18 -113 -6 -159 -21 -42 -76 -84 -122 -95 -16 -4 -28 -10 -28 -14 0 -4 41
-67 90 -139 50 -73 90 -134 90 -137 0 -3 -24 -5 -52 -5 l-53 1 -90 134 c-49
74 -93 135 -97 135 -4 0 -8 -61 -8 -135 l0 -135 -50 0 -50 0 0 335 0 335 93 0
c55 0 115 -6 145 -15z m1092 -320 l0 -335 -45 0 -45 0 0 335 0 335 45 0 45 0
0 -335z m-7931 -1000 c19 -19 26 -35 26 -66 0 -36 -6 -46 -38 -75 l-38 -32
106 -619 c140 -816 134 -781 141 -833 3 -25 8 -63 9 -85 l4 -40 -9 40 c-23
101 -54 276 -161 888 -107 619 -115 658 -136 663 -38 10 -68 51 -68 96 0 33 6
45 34 70 28 25 39 29 69 24 20 -3 47 -17 61 -31z m-699 -360 c35 -36 34 -95
-3 -132 -60 -61 -162 -19 -162 66 0 89 101 130 165 66z m1137 -348 c33 -32 38
-75 13 -115 -11 -18 -31 -37 -45 -42 l-25 -10 -1 -402 c-1 -222 -3 -395 -6
-385 -2 9 -8 17 -12 17 -4 0 -8 8 -8 18 1 9 0 185 -1 390 -2 301 -5 372 -15
372 -28 0 -62 50 -62 90 0 87 101 128 162 67z m468 -381 c45 -19 72 -71 58
-112 -13 -38 -56 -68 -97 -67 l-33 1 -54 -128 c-29 -71 -56 -127 -61 -124 -7
5 12 61 51 145 42 92 50 118 39 125 -5 4 -16 21 -24 39 -18 44 -2 90 40 116
37 23 38 23 81 5z m-1618 -38 c46 -43 37 -105 -22 -139 l-35 -21 0 -141 c0
-140 0 -141 28 -171 l27 -29 -37 28 -38 27 0 149 c0 119 -3 149 -14 149 -23 0
-63 39 -69 67 -16 87 93 143 160 81z m1731 -375 c13 -8 21 -17 18 -20 -3 -3
-12 2 -21 11 -16 15 -35 20 -64 17 -7 -2 -10 3 -6 9 8 12 38 5 73 -17z m-101
2 c-10 -7 -25 -22 -33 -32 -14 -17 -14 -16 -4 4 5 12 18 27 28 32 25 15 30 13
9 -4z m-205 -48 c-4 -7 -14 -31 -22 -54 -7 -23 -17 -40 -22 -37 -5 3 -5 11 0
17 6 7 16 31 22 54 7 23 17 40 22 37 5 -3 5 -11 0 -17z m341 -7 c3 -11 1 -23
-4 -26 -5 -3 -9 6 -9 20 0 31 6 34 13 6z m-173 -15 c0 -8 -4 -15 -10 -15 -5 0
-7 7 -4 15 4 8 8 15 10 15 2 0 4 -7 4 -15z m170 -33 c0 -5 -7 -17 -15 -28 -14
-18 -14 -17 -4 9 12 27 19 34 19 19z m-126 -61 c-2 -3 -12 3 -22 13 -16 17
-16 18 5 5 12 -7 20 -15 17 -18z m-267 -1 c-1 -11 -5 -20 -9 -20 -10 0 -10 4
-2 24 8 22 13 20 11 -4z m-13 -45 c-4 -8 -10 -15 -15 -15 -4 0 -6 7 -3 15 4 8
10 15 15 15 4 0 6 -7 3 -15z"/>
<path d="M1833 6620 c-50 -21 -55 -105 -8 -136 29 -19 86 -12 106 13 18 21 17
89 -1 108 -20 19 -69 27 -97 15z"/>
<path d="M119 6601 c-32 -32 -35 -47 -18 -84 22 -49 86 -61 124 -22 40 40 30
96 -22 123 -34 18 -52 14 -84 -17z"/>
<path d="M280 3485 c-20 -24 -8 -50 24 -50 36 0 56 26 37 49 -17 20 -45 21
-61 1z"/>
<path d="M396 2849 c-58 -45 -21 -139 55 -139 72 0 106 84 54 135 -30 31 -73
32 -109 4z"/>
<path d="M717 2208 c-40 -31 -36 -115 8 -132 63 -24 115 7 115 69 0 48 -25 75
-69 75 -20 0 -45 -6 -54 -12z"/>
<path d="M1225 3335 c-50 -49 -15 -135 55 -135 41 0 80 39 80 80 0 41 -39 80
-80 80 -19 0 -40 -9 -55 -25z"/>
<path d="M1002 5940 c-48 -20 -53 -89 -10 -130 38 -35 90 -23 116 27 18 34 14
62 -13 88 -25 26 -54 30 -93 15z"/>
<path d="M975 6618 c-34 -20 -46 -41 -41 -76 7 -44 21 -60 62 -68 65 -12 110
44 84 105 -11 27 -46 51 -73 51 -7 0 -21 -6 -32 -12z"/>
<path d="M1400 5625 c-26 -31 13 -82 44 -56 19 16 21 42 4 59 -16 16 -33 15
-48 -3z"/>
<path d="M1235 5265 c-16 -15 -25 -36 -25 -55 0 -36 38 -80 70 -80 88 0 122
113 43 149 -37 17 -62 13 -88 -14z"/>
<path d="M1030 4880 c-11 -11 -20 -29 -20 -40 0 -29 36 -60 69 -60 32 0 61 30
61 62 0 26 -36 58 -65 58 -14 0 -34 -9 -45 -20z"/>
<path d="M1822 6073 c-13 -10 -25 -34 -28 -55 -5 -31 -2 -41 21 -63 22 -23 32
-26 63 -22 19 4 43 13 51 22 20 20 20 90 0 110 -25 26 -81 30 -107 8z"/>
<path d="M2282 7054 c-32 -22 -30 -69 4 -91 24 -15 29 -15 53 -2 36 20 41 71
9 93 -28 20 -38 20 -66 0z"/>
<path d="M1725 5665 c-16 -15 -25 -36 -25 -55 0 -36 38 -80 69 -80 35 0 69 22
82 51 32 78 -67 144 -126 84z"/>
<path d="M90 5395 c-26 -31 13 -82 44 -56 19 16 21 42 4 59 -16 16 -33 15 -48
-3z"/>
<path d="M3040 4811 c-142 -44 -223 -195 -176 -329 19 -54 51 -96 96 -127 49
-34 92 -46 167 -46 80 0 135 24 189 83 155 168 32 431 -200 427 -28 0 -62 -4
-76 -8z"/>
<path d="M5174 4804 c-20 -19 -24 -31 -19 -52 7 -29 51 -92 64 -92 4 0 24 15
44 34 29 27 37 41 37 69 0 65 -77 91 -126 41z"/>
<path d="M5149 4505 c-78 -57 -98 -104 -63 -153 41 -59 133 -69 206 -23 25 16
49 34 52 40 6 10 -131 171 -144 171 -3 0 -26 -16 -51 -35z"/>
<path d="M7087 4593 c-26 -58 -45 -108 -43 -110 2 -2 46 -2 99 -1 l95 3 -45
100 c-25 55 -48 103 -52 108 -4 4 -28 -41 -54 -100z"/>
<path d="M3690 4560 l0 -240 38 0 c196 0 312 91 312 242 0 72 -20 121 -68 171
-45 46 -109 67 -209 67 l-73 0 0 -240z"/>
<path d="M7640 4700 l0 -110 45 0 c89 0 145 42 145 110 0 68 -56 110 -145 110
l-45 0 0 -110z"/>
<path d="M815 3555 c-50 -49 -15 -135 55 -135 41 0 80 39 80 80 0 41 -39 80
-80 80 -19 0 -40 -9 -55 -25z"/>
<path d="M115 3195 c-50 -49 -15 -135 55 -135 41 0 80 39 80 80 0 41 -39 80
-80 80 -19 0 -40 -9 -55 -25z"/>
<path d="M1255 2845 c-52 -51 -18 -135 54 -135 42 0 81 38 81 80 0 41 -39 80
-80 80 -19 0 -40 -9 -55 -25z"/>
<path d="M1752 2447 c-49 -52 -13 -137 57 -137 48 0 76 27 80 76 2 35 -2 45
-25 63 -36 28 -85 27 -112 -2z"/>
<path d="M102 2427 c-48 -51 -12 -127 61 -127 47 0 77 28 77 73 0 69 -91 105
-138 54z"/>
<path d="M115 6015 c-36 -35 -29 -89 14 -122 47 -36 121 12 121 78 0 31 -44
69 -80 69 -19 0 -40 -9 -55 -25z"/>
</g>
</svg>
